<svg width="98" height="134" viewBox="0 0 98 134" fill="none" xmlns="http://www.w3.org/2000/svg">
<g filter="url(#filter0_d_163_395)">
<rect x="39" y="16" width="50" height="40" rx="15" fill="#11AABE"/>
</g>
<path d="M65.1466 36.0036H55.8678ZM55.6048 37.1418L54.0718 41.4267C53.2322 43.7735 52.8124 44.9469 53.1137 45.6694C53.3753 46.297 53.9372 46.7727 54.6306 46.9538C55.429 47.1623 56.6349 46.6545 59.0468 45.639L74.5089 39.1282C76.8631 38.1368 78.0402 37.6413 78.4039 36.9527C78.7201 36.3545 78.7201 35.6526 78.4039 35.0544C78.0402 34.366 76.8631 33.8703 74.5089 32.879L59.0201 26.3571C56.6155 25.3445 55.4132 24.8383 54.6156 25.046C53.9229 25.2263 53.3611 25.7008 53.0985 26.3272C52.7962 27.0484 53.2116 28.2192 54.0422 30.561L55.6078 34.9747C55.7504 35.3769 55.8218 35.5781 55.8499 35.7836C55.8749 35.9662 55.8747 36.151 55.8492 36.3334C55.8205 36.539 55.7486 36.7399 55.6048 37.1418Z" fill="#11AABE"/>
<path d="M65.1466 36.0036H55.8678M55.6048 37.1418L54.0718 41.4267C53.2322 43.7735 52.8124 44.9469 53.1137 45.6694C53.3753 46.297 53.9372 46.7727 54.6306 46.9538C55.429 47.1623 56.6349 46.6545 59.0468 45.639L74.5089 39.1282C76.8631 38.1368 78.0402 37.6413 78.4039 36.9527C78.7201 36.3545 78.7201 35.6526 78.4039 35.0544C78.0402 34.366 76.8631 33.8703 74.5089 32.879L59.0201 26.3571C56.6155 25.3445 55.4132 24.8383 54.6156 25.046C53.9229 25.2263 53.3611 25.7008 53.0985 26.3272C52.7962 27.0484 53.2116 28.2192 54.0422 30.561L55.6078 34.9747C55.7504 35.3769 55.8218 35.5781 55.8499 35.7836C55.8749 35.9662 55.8747 36.151 55.8492 36.3334C55.8205 36.539 55.7486 36.7399 55.6048 37.1418Z" stroke="white" stroke-width="2" stroke-linecap="round" stroke-linejoin="round"/>
<circle cx="66" cy="27" r="6" fill="#F20909"/>
<defs>
<filter id="filter0_d_163_395" x="0" y="-6" width="150" height="140" filterUnits="userSpaceOnUse" color-interpolation-filters="sRGB">
<feFlood flood-opacity="0" result="BackgroundImageFix"/>
<feColorMatrix in="SourceAlpha" type="matrix" values="0 0 0 0 0 0 0 0 0 0 0 0 0 0 0 0 0 0 127 0" result="hardAlpha"/>
<feOffset dx="11" dy="28"/>
<feGaussianBlur stdDeviation="25"/>
<feColorMatrix type="matrix" values="0 0 0 0 0.0784314 0 0 0 0 0.305882 0 0 0 0 0.352941 0 0 0 0.2 0"/>
<feBlend mode="normal" in2="BackgroundImageFix" result="effect1_dropShadow_163_395"/>
<feBlend mode="normal" in="SourceGraphic" in2="effect1_dropShadow_163_395" result="shape"/>
</filter>
</defs>
</svg>
