<svg fill="#FFC700"  version="1.1" xmlns="http://www.w3.org/2000/svg" viewBox="0 0 356.40 356.40" xmlns:xlink="http://www.w3.org/1999/xlink" enable-background="new 0 0 297 297" stroke="#FFC700"><g id="SVGRepo_bgCarrier" stroke-width="0"></g><g id="SVGRepo_tracerCarrier" stroke-linecap="round" stroke-linejoin="round"></g><g id="SVGRepo_iconCarrier"> <g> <path d="m119.74,49.775c-18.15,0-32.916,14.766-32.916,32.915s14.766,32.915 32.916,32.915c18.149,0 32.915-14.766 32.915-32.915s-14.765-32.915-32.915-32.915zm0,49.003c-8.871,0-16.088-7.217-16.088-16.087s7.217-16.087 16.088-16.087c8.87,0 16.088,7.217 16.088,16.087s-7.217,16.087-16.088,16.087z"></path> <path d="m183.276,54.349c-17.219-17.219-40.112-26.702-64.464-26.702-24.351,0-47.244,9.483-64.463,26.702-17.219,17.219-26.701,40.112-26.701,64.464 0,24.351 9.482,47.244 26.701,64.463 17.219,17.219 40.112,26.701 64.463,26.701 24.352,0 47.245-9.482 64.464-26.701 17.219-17.219 26.702-40.112 26.702-64.463 0-24.352-9.483-47.245-26.702-64.464zm-104.126,130.855v-30.724c0-6.774 4.299-12.767 10.706-14.943l5.157-1.582 20.707,11.261c2.506,1.363 5.533,1.363 8.039,0l20.706-11.261 5.157,1.582c6.407,2.176 10.706,8.169 10.706,14.943v29.549c-12.292,7.859-26.576,12.089-41.517,12.089-14.19,0-27.798-3.798-39.661-10.914zm98.007-15.703v-15.02c0-14.058-8.961-26.49-22.298-30.936-0.064-0.021-0.128-0.043-0.192-0.062l-8.645-2.653c-2.161-0.663-4.5-0.429-6.487,0.653l-19.794,10.764-19.795-10.764c-1.987-1.082-4.327-1.316-6.487-0.653l-8.645,2.653c-0.065,0.019-0.129,0.041-0.192,0.062-13.337,4.446-22.298,16.877-22.298,30.936v17.077c-13.433-14.363-20.816-32.983-20.816-52.745 0-20.649 8.041-40.063 22.643-54.664 14.601-14.602 34.015-22.644 54.663-22.644 20.649,0 40.063,8.042 54.664,22.644 14.602,14.601 22.644,34.015 22.644,54.664-0.002,18.832-6.71,36.624-18.965,50.688z"></path> <path d="m294.535,261.994l-76.985-76.986c30.985-46.186 26.095-109.467-14.684-150.248-46.349-46.347-121.759-46.347-168.107,0-46.346,46.347-46.346,121.758 0,168.106 23.174,23.172 53.613,34.759 84.053,34.759 23.129,0 46.254-6.697 66.196-20.075l76.985,76.986c1.579,1.578 3.719,2.464 5.95,2.464 2.231,0 4.371-0.886 5.95-2.464l20.643-20.642c3.285-3.286 3.285-8.614-0.001-11.9zm-247.876-71.028c-39.785-39.786-39.785-104.522 7.10543e-15-144.306 39.785-39.787 104.522-39.787 144.307,0 39.786,39.785 39.786,104.52 0,144.306-39.784,39.785-104.522,39.784-144.307,0zm221.284,85.721l-69.561-69.563c1.523-1.373 3.018-2.792 4.484-4.258 1.466-1.466 2.885-2.962 4.258-4.484l69.562,69.562-8.743,8.743z"></path> </g> </g></svg>