<svg width="30" height="30" viewBox="0 0 30 30" fill="none" xmlns="http://www.w3.org/2000/svg">
<path fill-rule="evenodd" clip-rule="evenodd" d="M15 30.001C23.2843 30.001 30 23.2853 30 15.001C30 6.71676 23.2843 0.00103569 15 0.00103569C6.71573 0.00103569 0 6.71676 0 15.001C0 23.2853 6.71573 30.001 15 30.001ZM20.1693 12.2934C20.1693 15.1698 17.252 22.085 14.8773 22.085C12.5026 22.085 9.58594 15.1698 9.58594 12.2934C9.58594 9.41687 12.0008 7.08502 14.8773 7.08502C17.7538 7.08502 20.1693 9.41687 20.1693 12.2934ZM17.5 12.501C17.5 13.8817 16.3807 15.001 15 15.001C13.6193 15.001 12.5 13.8817 12.5 12.501C12.5 11.1203 13.6193 10.001 15 10.001C16.3807 10.001 17.5 11.1203 17.5 12.501Z" fill="#11AABE"/>
</svg>
